<?xml version="1.0" encoding="UTF-8"?>
<svg version="1.1" xmlns="http://www.w3.org/2000/svg" width="713" height="714">
<path d="M0 0 C1.20062576 -0.00101212 1.20062576 -0.00101212 2.42550659 -0.00204468 C53.50471617 0.06551624 103.05908653 11.34879066 149.5625 32.25 C150.37605957 32.61351562 151.18961914 32.97703125 152.02783203 33.3515625 C196.16685227 53.21099625 238.18193469 84.22871323 269.5625 121.25 C270.37203125 122.18199219 271.1815625 123.11398438 272.015625 124.07421875 C283.22601921 137.0442656 293.35392656 150.79265582 302.5625 165.25 C302.92907715 165.82476074 303.2956543 166.39952148 303.67333984 166.99169922 C327.52148705 204.74859087 343.95638371 246.92276169 352.3125 290.75 C352.49917236 291.71945557 352.68584473 292.68891113 352.87817383 293.68774414 C356.63634078 314.63863894 358.11843687 335.5490839 358 356.8125 C357.99543793 358.56708527 357.99543793 358.56708527 357.99078369 360.3571167 C357.91715121 379.60399403 356.9648043 398.28616692 353.5625 417.25 C353.34819336 418.45076172 353.13388672 419.65152344 352.91308594 420.88867188 C340.89476345 485.86108776 311.35287629 546.92478622 266.8046875 595.7890625 C265.31930939 597.41935555 263.84513272 599.0599308 262.3828125 600.7109375 C254.32081834 609.80578501 245.84362058 618.39674412 236.5625 626.25 C235.21865234 627.42755859 235.21865234 627.42755859 233.84765625 628.62890625 C170.28527147 683.989693 86.18969301 714.43536435 2.125 714.5 C1.32458282 714.50067474 0.52416565 714.50134949 -0.30050659 714.50204468 C-51.37971617 714.43448376 -100.93408653 703.15120934 -147.4375 682.25 C-148.65783936 681.70472656 -148.65783936 681.70472656 -149.90283203 681.1484375 C-194.04185227 661.28900375 -236.05693469 630.27128677 -267.4375 593.25 C-268.24703125 592.31800781 -269.0565625 591.38601563 -269.890625 590.42578125 C-281.10101921 577.4557344 -291.22892656 563.70734418 -300.4375 549.25 C-300.80407715 548.67523926 -301.1706543 548.10047852 -301.54833984 547.50830078 C-325.39648705 509.75140913 -341.83138371 467.57723831 -350.1875 423.75 C-350.37417236 422.78054443 -350.56084473 421.81108887 -350.75317383 420.81225586 C-354.51134078 399.86136106 -355.99343687 378.9509161 -355.875 357.6875 C-355.87195862 356.51777649 -355.86891724 355.34805298 -355.86578369 354.1428833 C-355.79215121 334.89600597 -354.8398043 316.21383308 -351.4375 297.25 C-351.22319336 296.04923828 -351.00888672 294.84847656 -350.78808594 293.61132812 C-338.76976345 228.63891224 -309.22787629 167.57521378 -264.6796875 118.7109375 C-263.19430939 117.08064445 -261.72013272 115.4400692 -260.2578125 113.7890625 C-252.19581834 104.69421499 -243.71862058 96.10325588 -234.4375 88.25 C-233.54160156 87.46496094 -232.64570313 86.67992188 -231.72265625 85.87109375 C-168.16027147 30.510307 -84.06469301 0.06463565 0 0 Z " fill="#FDFDFD" transform="translate(355.4375,-0.25)"/>
<path d="M0 0 C1.20062576 -0.00101212 1.20062576 -0.00101212 2.42550659 -0.00204468 C53.50471617 0.06551624 103.05908653 11.34879066 149.5625 32.25 C150.37605957 32.61351562 151.18961914 32.97703125 152.02783203 33.3515625 C196.16685227 53.21099625 238.18193469 84.22871323 269.5625 121.25 C270.37203125 122.18199219 271.1815625 123.11398438 272.015625 124.07421875 C283.22601921 137.0442656 293.35392656 150.79265582 302.5625 165.25 C302.92907715 165.82476074 303.2956543 166.39952148 303.67333984 166.99169922 C327.52148705 204.74859087 343.95638371 246.92276169 352.3125 290.75 C352.49917236 291.71945557 352.68584473 292.68891113 352.87817383 293.68774414 C356.63634078 314.63863894 358.11843687 335.5490839 358 356.8125 C357.99543793 358.56708527 357.99543793 358.56708527 357.99078369 360.3571167 C357.91715121 379.60399403 356.9648043 398.28616692 353.5625 417.25 C353.34819336 418.45076172 353.13388672 419.65152344 352.91308594 420.88867188 C340.89476345 485.86108776 311.35287629 546.92478622 266.8046875 595.7890625 C265.31930939 597.41935555 263.84513272 599.0599308 262.3828125 600.7109375 C254.32081834 609.80578501 245.84362058 618.39674412 236.5625 626.25 C235.21865234 627.42755859 235.21865234 627.42755859 233.84765625 628.62890625 C170.28527147 683.989693 86.18969301 714.43536435 2.125 714.5 C1.32458282 714.50067474 0.52416565 714.50134949 -0.30050659 714.50204468 C-51.37971617 714.43448376 -100.93408653 703.15120934 -147.4375 682.25 C-148.65783936 681.70472656 -148.65783936 681.70472656 -149.90283203 681.1484375 C-194.04185227 661.28900375 -236.05693469 630.27128677 -267.4375 593.25 C-268.24703125 592.31800781 -269.0565625 591.38601563 -269.890625 590.42578125 C-281.10101921 577.4557344 -291.22892656 563.70734418 -300.4375 549.25 C-300.80407715 548.67523926 -301.1706543 548.10047852 -301.54833984 547.50830078 C-325.39648705 509.75140913 -341.83138371 467.57723831 -350.1875 423.75 C-350.37417236 422.78054443 -350.56084473 421.81108887 -350.75317383 420.81225586 C-354.51134078 399.86136106 -355.99343687 378.9509161 -355.875 357.6875 C-355.87195862 356.51777649 -355.86891724 355.34805298 -355.86578369 354.1428833 C-355.79215121 334.89600597 -354.8398043 316.21383308 -351.4375 297.25 C-351.22319336 296.04923828 -351.00888672 294.84847656 -350.78808594 293.61132812 C-338.76976345 228.63891224 -309.22787629 167.57521378 -264.6796875 118.7109375 C-263.19430939 117.08064445 -261.72013272 115.4400692 -260.2578125 113.7890625 C-252.19581834 104.69421499 -243.71862058 96.10325588 -234.4375 88.25 C-233.54160156 87.46496094 -232.64570313 86.67992188 -231.72265625 85.87109375 C-168.16027147 30.510307 -84.06469301 0.06463565 0 0 Z M-66.9375 40.5 C-67.95481201 40.71052002 -68.97212402 40.92104004 -70.02026367 41.13793945 C-81.65384523 43.62083041 -93.08260466 46.71196722 -104.4375 50.25 C-105.53400879 50.59095703 -106.63051758 50.93191406 -107.76025391 51.28320312 C-133.6623435 59.51985086 -158.16101179 71.65245889 -180.4375 87.25 C-181.84707919 88.21178378 -183.2572546 89.17269422 -184.66796875 90.1328125 C-198.99534058 99.97298715 -212.26581169 110.88127545 -224.89501953 122.80908203 C-226.43266036 124.24547902 -227.99052076 125.65552938 -229.55859375 127.05859375 C-239.31003966 135.79616089 -247.95997661 145.33672688 -256.109375 155.58300781 C-257.06372321 156.78085516 -258.02260206 157.97509807 -258.984375 159.16699219 C-294.36164118 203.07861055 -317.85420639 255.20181492 -325.4375 311.25 C-325.55319336 312.0764502 -325.66888672 312.90290039 -325.78808594 313.75439453 C-329.83185002 344.08262514 -328.08478629 375.11958095 -323.4375 405.25 C-323.26089844 406.40886719 -323.08429688 407.56773437 -322.90234375 408.76171875 C-318.8347207 434.46307031 -311.15727402 459.55211949 -300.4375 483.25 C-299.98503906 484.25369629 -299.53257812 485.25739258 -299.06640625 486.29150391 C-287.41790913 511.87321355 -272.89729316 535.25408411 -255.4375 557.25 C-254.71046875 558.17167969 -253.9834375 559.09335937 -253.234375 560.04296875 C-238.93250428 577.86886157 -222.60161808 595.35026625 -204.4375 609.25 C-203.43589844 610.06855469 -202.43429688 610.88710938 -201.40234375 611.73046875 C-187.09335935 623.39533209 -171.55695749 633.54396282 -155.28759766 642.25292969 C-153.46529443 643.23502079 -151.65961743 644.24282445 -149.85546875 645.2578125 C-126.59239084 658.20777191 -101.21907836 666.8991267 -75.4375 673.25 C-74.27275146 673.53786377 -74.27275146 673.53786377 -73.08447266 673.83154297 C-48.00253424 679.83968126 -22.26975538 681.6309607 3.4375 681.5625 C4.39808319 681.56004272 5.35866638 681.55758545 6.34835815 681.55505371 C23.47610094 681.47646671 39.88674475 680.10399277 56.75 677.125 C57.62934204 676.97071533 58.50868408 676.81643066 59.41467285 676.6574707 C74.38913649 674.01040439 89.03146085 670.7894956 103.5625 666.25 C104.85728271 665.8487793 104.85728271 665.8487793 106.17822266 665.43945312 C135.9583207 656.03218523 164.3993794 641.74163042 189.5625 623.25 C190.22008301 622.77353027 190.87766602 622.29706055 191.55517578 621.80615234 C204.65195766 612.30370601 216.92209247 602.15502232 228.234375 590.578125 C230.03963746 588.77286254 231.81451294 587.13985821 233.8125 585.5625 C236.76785599 583.07731428 239.15629064 580.40757584 241.65234375 577.47265625 C243.69458115 575.09631048 245.81244918 572.80244636 247.9375 570.5 C252.8659756 565.02299255 257.25538708 559.22091978 261.5625 553.25 C262.01496094 552.62738281 262.46742188 552.00476563 262.93359375 551.36328125 C285.12846724 520.74758855 302.61019293 488.61638834 313.88525391 452.39794922 C314.46162287 450.56994123 315.07643102 448.75412516 315.69921875 446.94140625 C323.95946641 422.35655846 327.5619855 394.45013547 327.8359375 368.55859375 C327.84846558 367.46722107 327.86099365 366.37584839 327.87390137 365.25140381 C328.1034614 340.43649242 327.62933693 316.58831231 322.5625 292.25 C322.33788086 291.13077148 322.11326172 290.01154297 321.88183594 288.85839844 C312.86095376 244.8569775 294.03341508 205.27124178 267.5625 169.25 C267.13614258 168.66911621 266.70978516 168.08823242 266.27050781 167.48974609 C248.40754861 143.33012918 227.53055914 121.37046577 203.5625 103.25 C202.84288086 102.70053711 202.12326172 102.15107422 201.38183594 101.58496094 C190.18500605 93.05517687 178.76465645 85.2670478 166.5625 78.25 C165.72380371 77.76289551 164.88510742 77.27579102 164.02099609 76.77392578 C150.00972688 68.68920269 135.65945988 62.04696333 120.5625 56.25 C119.69383301 55.91629395 118.82516602 55.58258789 117.93017578 55.23876953 C104.73819197 50.2467245 91.27923984 46.50211967 77.5625 43.25 C76.76505371 43.05809082 75.96760742 42.86618164 75.14599609 42.66845703 C69.32043834 41.2962035 63.46833117 40.21520819 57.5625 39.25 C56.46389648 39.06663086 55.36529297 38.88326172 54.23339844 38.69433594 C35.00864226 35.62605862 15.95449518 34.85290785 -3.5 34.8125 C-4.60246063 34.80641724 -5.70492126 34.80033447 -6.84078979 34.79406738 C-27.05856321 34.72103894 -47.12141591 36.32715015 -66.9375 40.5 Z " fill="#050505" transform="translate(355.4375,-0.25)"/>
<path d="M0 0 C2.19513702 -0.00435351 4.38822884 -0.04063621 6.58300781 -0.07861328 C14.11166781 -0.13958626 20.01538359 0.06509552 26.46582031 4.37060547 C27.16191406 4.81919922 27.85800781 5.26779297 28.57519531 5.72998047 C35.1638376 11.31463917 39.93883312 18.41524934 44.98730469 25.35449219 C47.14168604 28.29222026 49.36049842 31.17784451 51.59082031 34.05810547 C52.40983285 35.11930175 53.22884328 36.18049965 54.04785156 37.24169922 C54.84578125 38.27423828 55.64371094 39.30677734 56.46582031 40.37060547 C76.49135795 66.36119687 76.49135795 66.36119687 83.90332031 76.30810547 C87.62991051 81.29736817 91.44548365 86.21261031 95.27832031 91.12060547 C100.23415956 97.46681268 105.1090521 103.86484605 109.91943359 110.32177734 C113.76677927 115.47198867 117.69676136 120.55394427 121.65332031 125.62060547 C126.14775895 131.37665152 130.59027161 137.16296063 134.95410156 143.01904297 C138.28090235 147.47241631 141.65767225 151.88789266 145.02832031 156.30810547 C145.71522949 157.20891846 146.40213867 158.10973145 147.10986328 159.0378418 C148.52413865 160.89217577 149.93852789 162.74642289 151.35302734 164.60058594 C154.72579792 169.02252434 158.09571164 173.44663823 161.46582031 177.87060547 C162.79913892 179.62061669 164.13247228 181.37061667 165.46582031 183.12060547 C189.46582031 214.62060547 189.46582031 214.62060547 191.46728516 217.24755859 C192.79569642 218.99107809 194.12414671 220.73456785 195.45263672 222.47802734 C198.86160441 226.95193144 202.26981591 231.42640847 205.67675781 235.90185547 C214.26618936 247.1857414 214.26618936 247.1857414 222.90332031 258.43310547 C227.48041032 264.37095197 231.98080904 270.36307503 236.46582031 276.37060547 C237.46560325 277.70410157 238.46556562 279.03746319 239.46582031 280.37060547 C239.4664174 279.80368795 239.46701449 279.23677044 239.46762967 278.6526736 C239.50351749 245.05837496 239.56014697 211.46418021 239.64374126 177.86996674 C239.65375882 173.83697689 239.66360293 169.80398663 239.67333984 165.77099609 C239.6762519 164.56664383 239.6762519 164.56664383 239.67922279 163.33796121 C239.71025054 150.33460077 239.7272256 137.33125798 239.73901454 124.32786749 C239.75142209 110.98686172 239.77891451 97.64594864 239.82043338 84.30500138 C239.84558018 76.07177289 239.85893674 67.83869812 239.85724989 59.60543068 C239.85722015 53.96086117 239.87183254 48.31644835 239.89798459 42.67193989 C239.91264394 39.41445096 239.91865336 36.15734848 239.911623 32.89982414 C239.90501412 29.3676749 239.92283079 25.83646724 239.94683838 22.30441284 C239.93519775 20.76063078 239.93519775 20.76063078 239.92332196 19.1856612 C239.99489021 13.25281283 240.54091197 9.90229131 244.46582031 5.37060547 C251.1085608 -0.48133258 256.85226986 0.08682517 265.27636719 0.02050781 C266.80874902 0.00402016 268.34105625 -0.02317451 269.87304688 -0.06152344 C285.90497985 -0.46041402 285.90497985 -0.46041402 290.86434561 3.74584913 C297.36901331 10.34507924 297.03771662 18.07813695 296.98048401 26.7689209 C296.98581462 28.12719078 296.99288327 29.48545475 297.00153106 30.84370756 C297.02011724 34.56143331 297.01386755 38.27875962 297.00337803 41.99650168 C296.99637458 46.01158324 297.01239256 50.02658368 297.02537537 54.04164124 C297.0470009 61.90133002 297.04689229 69.76087394 297.03874982 77.6205827 C297.0324466 84.00906784 297.03358981 90.39751078 297.0400219 96.78599548 C297.04092355 97.69569563 297.04182521 98.60539577 297.04275418 99.54266259 C297.04460541 101.39077748 297.04646797 103.23889236 297.04834174 105.08700722 C297.06491495 122.41140592 297.05620484 139.73572315 297.03935616 157.06011695 C297.02465722 172.90696476 297.03929118 188.753623 297.06812633 204.6004464 C297.09752343 220.87745762 297.10849185 237.15438135 297.09894413 253.43141794 C297.09792159 255.27268376 297.09692698 257.1139496 297.09596062 258.95521545 C297.09548423 259.86112213 297.09500784 260.76702881 297.09451701 261.70038721 C297.09235343 268.08023473 297.1021539 274.45999936 297.11673164 280.83982849 C297.13425273 288.61615653 297.13414077 296.39224282 297.11137999 304.16856134 C297.1002361 308.13522805 297.0970783 312.10146881 297.11568069 316.06811714 C297.13250081 319.70149635 297.12611489 323.33407862 297.10146391 326.96740633 C297.09427925 328.89971308 297.11159965 330.83206333 297.12987524 332.76429701 C297.0528314 339.94042958 296.23213291 344.84534297 291.46582031 350.37060547 C287.22342458 354.4605278 282.68146616 355.94173145 276.86978149 356.01403809 C275.69915665 355.98944519 275.69915665 355.98944519 274.50488281 355.96435547 C273.25896866 355.96441589 273.25896866 355.96441589 271.98788452 355.96447754 C270.24152 355.95914845 268.49515395 355.94167829 266.74902344 355.91259766 C264.1043807 355.87081969 261.46229963 355.87153273 258.81738281 355.87841797 C244.34339297 355.82538843 234.2484843 354.21156147 223.70019531 343.59326172 C215.88358728 334.95481406 209.11112556 325.25078282 202.14160156 315.92919922 C193.50779842 304.41859519 184.739476 293.00705502 175.95800781 281.60888672 C168.45114102 271.86102652 160.98316714 262.08549996 153.61816406 252.22998047 C150.9779206 248.7224338 148.29360199 245.24998165 145.60864258 241.77661133 C141.76039616 236.78313143 137.98844608 231.73383593 134.21582031 226.68310547 C128.66465743 219.25529502 123.02559702 211.90372351 117.31445312 204.59838867 C113.43497057 199.63201068 109.63535597 194.61326531 105.87207031 189.55810547 C102.77968233 185.46169542 99.62379485 181.4165517 96.46582031 177.37060547 C91.86936669 171.48170295 87.33566589 165.55550074 82.87597656 159.56201172 C79.76406066 155.44137105 76.58319073 151.37640153 73.40332031 147.30810547 C68.97225806 141.63718835 64.64303251 135.92008638 60.45019531 130.06982422 C57.59587846 126.18727906 54.60140318 122.42011475 51.6105957 118.64233398 C47.90073923 113.94850586 44.29550924 109.18819782 40.73144531 104.38232422 C38.78572304 101.79585547 36.81299003 99.23570901 34.82421875 96.68237305 C34.19497498 95.8742366 33.5657312 95.06610016 32.91741943 94.23347473 C32.43839172 93.61872787 31.95936401 93.00398102 31.46582031 92.37060547 C31.46435375 93.64043494 31.46288719 94.91026442 31.46137619 96.21857357 C31.4256574 126.37652478 31.369392 156.53436154 31.28789936 186.69222054 C31.27788217 190.40589728 31.26803799 194.11957446 31.25830078 197.83325195 C31.25635941 198.57256362 31.25441804 199.31187529 31.25241783 200.07359035 C31.22141516 212.03704625 31.20442203 224.00048299 31.19262609 235.96397149 C31.18020554 248.24391433 31.15268376 260.52375672 31.11120725 272.80363613 C31.08609764 280.3781411 31.07270117 287.95247942 31.07439074 295.5270266 C31.07442407 301.33981033 31.05342463 307.15237285 31.02465248 312.96507835 C31.01614059 315.34625553 31.01441226 317.72746823 31.02001762 320.10865402 C31.02665925 323.36389798 31.00873147 326.61813331 30.98480225 329.87327576 C30.99256266 330.81201536 31.00032308 331.75075497 31.00831866 332.71794122 C30.91302574 340.05830255 29.32200063 346.43926252 24.09082031 351.80810547 C17.03410795 356.00852949 10.06501186 355.73704947 2.09082031 355.74560547 C0.89714844 355.77009766 -0.29652344 355.79458984 -1.52636719 355.81982422 C-9.43204156 355.84605986 -15.49225684 355.36103885 -21.37402344 349.55419922 C-21.73625 348.97798828 -22.09847656 348.40177734 -22.47167969 347.80810547 C-22.85195312 347.22931641 -23.23222656 346.65052734 -23.62402344 346.05419922 C-25.49315369 342.59670936 -25.66076796 339.7471192 -25.66560745 335.8957243 C-25.6694486 334.7508976 -25.67328974 333.60607089 -25.67724729 332.42655247 C-25.6763808 331.16315268 -25.67551432 329.89975288 -25.67462158 328.59806824 C-25.67720469 327.24681984 -25.68021769 325.89557222 -25.68362498 324.54432565 C-25.69170463 320.82296734 -25.69348509 317.1016283 -25.69422245 313.38026226 C-25.69607132 309.36993254 -25.7036178 305.35961286 -25.71035767 301.34928894 C-25.72394817 292.57661761 -25.72996677 283.80395085 -25.73436832 275.03127074 C-25.73712943 269.55548172 -25.74136653 264.07969446 -25.7458725 258.60390663 C-25.7580659 243.44841084 -25.7683652 228.29291647 -25.77174759 213.13741589 C-25.77196716 212.16715413 -25.77218672 211.19689238 -25.77241294 210.19722875 C-25.77263122 209.22462286 -25.7728495 208.25201698 -25.77307439 207.24993819 C-25.77351786 205.27901153 -25.77396442 203.30808486 -25.77441406 201.3371582 C-25.77463549 200.35950693 -25.77485692 199.38185565 -25.77508506 198.37457857 C-25.77903397 182.52934511 -25.79649051 166.6841576 -25.81977358 150.83894189 C-25.84347513 134.57793767 -25.85594889 118.31695651 -25.85711551 102.05593473 C-25.85803292 92.92311527 -25.86380194 83.7903557 -25.88193512 74.65755272 C-25.89731993 66.88147399 -25.90246615 59.10547367 -25.89419702 51.32938262 C-25.8902848 47.36106221 -25.89124784 43.39289976 -25.90525436 39.42459869 C-25.91795913 35.79193168 -25.91682615 32.15954186 -25.90466365 28.52687541 C-25.9017706 26.58986883 -25.91366834 24.65285762 -25.92608571 22.71588868 C-25.88275442 15.13668007 -25.26218516 10.44835523 -20.09667969 4.62060547 C-14.01067619 -0.72320248 -7.72767733 -0.0017165 0 0 Z " fill="#060605" transform="translate(220.5341796875,180.62939453125)"/>
</svg>
